<svg width="38" height="38" viewBox="0 0 38 38" fill="none" xmlns="http://www.w3.org/2000/svg">
<path fill-rule="evenodd" clip-rule="evenodd" d="M18.9018 1.97917H19.0982C22.3741 1.97917 24.966 1.97917 26.9942 2.28159C29.089 2.59509 30.7515 3.25376 32.0451 4.69142C33.3228 6.11009 33.8944 7.90559 34.1668 10.1698C34.4375 12.3975 34.4375 15.2554 34.4375 18.9177V19.0823C34.4375 22.7446 34.4375 25.6025 34.1683 27.8303C33.8944 30.0944 33.3228 31.8899 32.0467 33.3086C30.7515 34.7463 29.0906 35.4049 26.9942 35.7184C24.966 36.0208 22.3741 36.0208 19.0997 36.0208H18.9003C15.6259 36.0208 13.034 36.0208 11.0058 35.7184C8.90942 35.4049 7.2485 34.7463 5.95492 33.3086C4.67717 31.8899 4.10558 30.0944 3.83325 27.8303C3.5625 25.6025 3.5625 22.7446 3.5625 19.0823V18.9177C3.5625 15.2554 3.5625 12.3975 3.83167 10.1713C4.10558 7.904 4.67717 6.11009 5.95333 4.69142C7.2485 3.25376 8.90942 2.59509 11.0058 2.28159C13.034 1.97917 15.6259 1.97917 18.9018 1.97917ZM11.3572 4.63125C9.57283 4.89725 8.512 5.39917 7.71875 6.2795C6.91125 7.17884 6.43625 8.41067 6.18925 10.4563C5.93908 12.5242 5.9375 15.238 5.9375 19C5.9375 22.762 5.93908 25.4758 6.19083 27.5437C6.43783 29.5893 6.90967 30.8212 7.71875 31.7205C8.512 32.6008 9.57283 33.1028 11.3572 33.3688C13.1892 33.6427 15.6038 33.6458 19 33.6458C22.3962 33.6458 24.8108 33.6427 26.6427 33.3688C28.4272 33.1028 29.488 32.6008 30.2797 31.7205C31.0903 30.8212 31.5622 29.5893 31.8108 27.5437C32.0609 25.4758 32.0625 22.762 32.0625 19C32.0625 15.238 32.0609 12.5242 31.8092 10.4563C31.5622 8.41067 31.0903 7.17884 30.2812 6.2795C29.488 5.39917 28.4272 4.89725 26.6427 4.63125C24.8108 4.35734 22.3962 4.35417 19 4.35417C15.6038 4.35417 13.1892 4.35734 11.3572 4.63125ZM14.117 8.3125H23.883C24.4847 8.3125 25.0072 8.3125 25.4632 8.43442C26.067 8.59614 26.6177 8.9139 27.0599 9.3558C27.502 9.7977 27.8202 10.3482 27.9823 10.9519C28.1058 11.4111 28.1058 11.9304 28.1042 12.5353V12.7997C28.1042 13.4013 28.1042 13.9238 27.9823 14.3798C27.8205 14.9837 27.5028 15.5344 27.0609 15.9765C26.619 16.4187 26.0685 16.7368 25.4648 16.8989C25.0056 17.0224 24.4862 17.0224 23.8814 17.0208H14.1186C13.5169 17.0208 12.9944 17.0208 12.5384 16.8989C11.9346 16.7372 11.3839 16.4194 10.9417 15.9775C10.4995 15.5356 10.1814 14.9852 10.0193 14.3814C9.89583 13.9223 9.89742 13.4029 9.89742 12.7981V12.5337C9.89742 11.932 9.89742 11.4095 10.0193 10.9535C10.181 10.3496 10.4988 9.79898 10.9407 9.3568C11.3826 8.91463 11.9331 8.59652 12.5368 8.43442C12.996 8.31092 13.5153 8.3125 14.1202 8.3125M14.25 10.6875C13.4377 10.6875 13.2636 10.697 13.1512 10.7287C12.95 10.7827 12.7665 10.8886 12.6192 11.0359C12.4719 11.1832 12.366 11.3667 12.312 11.5678C12.2803 11.6803 12.2708 11.8528 12.2708 12.6667C12.2708 13.4789 12.2803 13.6531 12.312 13.7655C12.366 13.9667 12.4719 14.1501 12.6192 14.2974C12.7665 14.4447 12.95 14.5507 13.1512 14.6047C13.2636 14.6363 13.4362 14.6458 14.25 14.6458H23.75C24.5623 14.6458 24.7364 14.6363 24.8488 14.6047C25.05 14.5507 25.2335 14.4447 25.3808 14.2974C25.5281 14.1501 25.634 13.9667 25.688 13.7655C25.7197 13.6531 25.7292 13.4805 25.7292 12.6667C25.7292 11.8544 25.7197 11.6803 25.688 11.5678C25.634 11.3667 25.5281 11.1832 25.3808 11.0359C25.2335 10.8886 25.05 10.7827 24.8488 10.7287C24.7364 10.697 24.5638 10.6875 23.75 10.6875H14.25Z" fill="white"/>
<path d="M14.2497 20.5833C14.2497 21.0033 14.0829 21.406 13.7859 21.7029C13.489 21.9999 13.0863 22.1667 12.6663 22.1667C12.2464 22.1667 11.8437 21.9999 11.5468 21.7029C11.2498 21.406 11.083 21.0033 11.083 20.5833C11.083 20.1634 11.2498 19.7607 11.5468 19.4637C11.8437 19.1668 12.2464 19 12.6663 19C13.0863 19 13.489 19.1668 13.7859 19.4637C14.0829 19.7607 14.2497 20.1634 14.2497 20.5833ZM14.2497 26.9167C14.2497 27.3366 14.0829 27.7393 13.7859 28.0363C13.489 28.3332 13.0863 28.5 12.6663 28.5C12.2464 28.5 11.8437 28.3332 11.5468 28.0363C11.2498 27.7393 11.083 27.3366 11.083 26.9167C11.083 26.4967 11.2498 26.094 11.5468 25.7971C11.8437 25.5001 12.2464 25.3333 12.6663 25.3333C13.0863 25.3333 13.489 25.5001 13.7859 25.7971C14.0829 26.094 14.2497 26.4967 14.2497 26.9167ZM20.583 20.5833C20.583 21.0033 20.4162 21.406 20.1193 21.7029C19.8223 21.9999 19.4196 22.1667 18.9997 22.1667C18.5797 22.1667 18.177 21.9999 17.8801 21.7029C17.5832 21.406 17.4163 21.0033 17.4163 20.5833C17.4163 20.1634 17.5832 19.7607 17.8801 19.4637C18.177 19.1668 18.5797 19 18.9997 19C19.4196 19 19.8223 19.1668 20.1193 19.4637C20.4162 19.7607 20.583 20.1634 20.583 20.5833ZM20.583 26.9167C20.583 27.3366 20.4162 27.7393 20.1193 28.0363C19.8223 28.3332 19.4196 28.5 18.9997 28.5C18.5797 28.5 18.177 28.3332 17.8801 28.0363C17.5832 27.7393 17.4163 27.3366 17.4163 26.9167C17.4163 26.4967 17.5832 26.094 17.8801 25.7971C18.177 25.5001 18.5797 25.3333 18.9997 25.3333C19.4196 25.3333 19.8223 25.5001 20.1193 25.7971C20.4162 26.094 20.583 26.4967 20.583 26.9167ZM26.9163 20.5833C26.9163 21.0033 26.7495 21.406 26.4526 21.7029C26.1557 21.9999 25.7529 22.1667 25.333 22.1667C24.9131 22.1667 24.5104 21.9999 24.2134 21.7029C23.9165 21.406 23.7497 21.0033 23.7497 20.5833C23.7497 20.1634 23.9165 19.7607 24.2134 19.4637C24.5104 19.1668 24.9131 19 25.333 19C25.7529 19 26.1557 19.1668 26.4526 19.4637C26.7495 19.7607 26.9163 20.1634 26.9163 20.5833ZM26.9163 26.9167C26.9163 27.3366 26.7495 27.7393 26.4526 28.0363C26.1557 28.3332 25.7529 28.5 25.333 28.5C24.9131 28.5 24.5104 28.3332 24.2134 28.0363C23.9165 27.7393 23.7497 27.3366 23.7497 26.9167C23.7497 26.4967 23.9165 26.094 24.2134 25.7971C24.5104 25.5001 24.9131 25.3333 25.333 25.3333C25.7529 25.3333 26.1557 25.5001 26.4526 25.7971C26.7495 26.094 26.9163 26.4967 26.9163 26.9167Z" fill="white"/>
</svg>
