<svg width="32" height="32" viewBox="0 0 32 32" fill="none" xmlns="http://www.w3.org/2000/svg">
<path d="M2.66699 16.0002C2.66699 10.9722 2.66699 8.4575 4.22966 6.89616C5.79233 5.33483 8.30566 5.3335 13.3337 5.3335H18.667C23.695 5.3335 26.2097 5.3335 27.771 6.89616C29.3323 8.45883 29.3337 10.9722 29.3337 16.0002C29.3337 21.0282 29.3337 23.5428 27.771 25.1042C26.2083 26.6655 23.695 26.6668 18.667 26.6668H13.3337C8.30566 26.6668 5.79099 26.6668 4.22966 25.1042C2.66833 23.5415 2.66699 21.0282 2.66699 16.0002Z" stroke="white" stroke-width="2"/>
<path opacity="0.5" d="M13.3337 21.3335H8.00033M18.667 21.3335H16.667M2.66699 13.3335H29.3337" stroke="white" stroke-width="2" stroke-linecap="round"/>
</svg>
