<svg width="32" height="32" viewBox="0 0 32 32" fill="none" xmlns="http://www.w3.org/2000/svg">
<path d="M19.3337 5.99984C19.3337 6.88389 18.9825 7.73174 18.3573 8.35686C17.7322 8.98198 16.8844 9.33317 16.0003 9.33317C15.1163 9.33317 14.2684 8.98198 13.6433 8.35686C13.0182 7.73174 12.667 6.88389 12.667 5.99984C12.667 5.11578 13.0182 4.26794 13.6433 3.64281C14.2684 3.01769 15.1163 2.6665 16.0003 2.6665C16.8844 2.6665 17.7322 3.01769 18.3573 3.64281C18.9825 4.26794 19.3337 5.11578 19.3337 5.99984Z" fill="white"/>
<path fill-rule="evenodd" clip-rule="evenodd" d="M13.2663 20.533C13.4785 20.6921 13.6188 20.929 13.6563 21.1916C13.6938 21.4541 13.6255 21.7208 13.4663 21.933L12.0703 23.793L11.977 23.917C11.4948 24.5268 10.8314 24.9676 10.0823 25.1757L9.93167 25.2143L9.92101 25.217L7.94101 25.7117C7.48138 25.8261 7.0733 26.0911 6.78185 26.4644C6.49041 26.8378 6.33239 27.298 6.33301 27.7717C6.33301 28.081 6.58501 28.333 6.89434 28.333H8.96901C9.79167 28.333 10.1223 28.3317 10.4383 28.293C11.2094 28.2027 11.9537 27.9549 12.625 27.565C12.8997 27.405 13.1663 27.2077 13.825 26.7143L16.733 24.533C16.8381 24.4542 16.9576 24.3969 17.0848 24.3643C17.212 24.3317 17.3444 24.3245 17.4744 24.3431C17.6044 24.3616 17.7295 24.4056 17.8425 24.4725C17.9555 24.5394 18.0542 24.6279 18.133 24.733C18.2118 24.8381 18.2691 24.9576 18.3017 25.0848C18.3343 25.212 18.3415 25.3444 18.323 25.4744C18.3044 25.6044 18.2604 25.7295 18.1935 25.8425C18.1266 25.9555 18.0381 26.0542 17.933 26.133L16.7263 27.037L18.4037 27.6663C19.2397 27.9797 19.577 28.1037 19.9183 28.185C20.105 28.2277 20.2917 28.2615 20.4783 28.2863C20.8277 28.3317 21.1863 28.333 22.0783 28.333H25.105C25.1788 28.3332 25.2518 28.3188 25.32 28.2906C25.3882 28.2625 25.4502 28.2211 25.5023 28.169C25.5545 28.1168 25.5958 28.0549 25.624 27.9867C25.6521 27.9185 25.6665 27.8454 25.6663 27.7717C25.6663 26.7983 25.0037 25.9477 24.0583 25.7117L22.0677 25.2143L21.917 25.1743C21.1687 24.9663 20.5057 24.5261 20.0237 23.917C19.993 23.8797 19.965 23.841 19.9277 23.793L18.533 21.933C18.4542 21.828 18.3969 21.7084 18.3643 21.5812C18.3317 21.454 18.3245 21.3216 18.3431 21.1916C18.3616 21.0616 18.4056 20.9365 18.4725 20.8235C18.5394 20.7105 18.6279 20.6118 18.733 20.533C18.8381 20.4542 18.9576 20.3969 19.0848 20.3643C19.212 20.3317 19.3444 20.3245 19.4744 20.3431C19.6044 20.3616 19.7295 20.4056 19.8425 20.4725C19.9555 20.5394 20.0542 20.628 20.133 20.733L21.5223 22.585L21.5917 22.677C21.8349 22.9853 22.1791 23.1977 22.5637 23.277L24.5437 23.7703C25.4359 23.9929 26.228 24.5077 26.7939 25.2325C27.3598 25.9574 27.6669 26.8507 27.6663 27.7703C27.6663 29.1863 26.5197 30.333 25.105 30.333H22.0103C21.2077 30.333 20.713 30.333 20.221 30.269C19.9668 30.2352 19.7143 30.1895 19.4637 30.1317C18.9797 30.0183 18.517 29.845 17.7663 29.5637L14.8277 28.4623C14.321 28.8423 13.9863 29.089 13.6303 29.2943C12.7225 29.8223 11.716 30.1581 10.673 30.281C10.2263 30.3343 9.77167 30.333 9.03301 30.333H6.89434C6.55793 30.3332 6.22479 30.267 5.91395 30.1384C5.60312 30.0097 5.32069 29.8211 5.08281 29.5832C4.84494 29.3453 4.65628 29.0629 4.52762 28.7521C4.39896 28.4412 4.33283 28.1081 4.33301 27.7717C4.33301 25.8783 5.62101 24.2303 7.45567 23.7717L9.43567 23.277L9.54634 23.2477C9.92495 23.1433 10.2545 22.9086 10.477 22.585L11.8663 20.733C11.9451 20.628 12.0438 20.5394 12.1568 20.4725C12.2698 20.4056 12.3949 20.3616 12.5249 20.3431C12.6549 20.3245 12.7873 20.3317 12.9145 20.3643C13.0417 20.3969 13.1613 20.4542 13.2663 20.533Z" fill="white"/>
<path opacity="0.5" d="M17.1585 13.096C16.3914 12.9685 15.6084 12.9685 14.8412 13.096C11.4985 13.66 9.00121 16.5947 9.00121 20.0267C9.00121 20.7787 8.57854 21.4733 7.90254 21.8147L4.45054 23.56C4.21529 23.6687 3.94705 23.6817 3.70234 23.5965C3.45763 23.5113 3.25555 23.3344 3.1387 23.1031C3.02185 22.8718 2.99934 22.6042 3.07591 22.3566C3.15249 22.1091 3.32217 21.9009 3.54921 21.776L6.99854 20.032L6.99988 20.028C6.99988 15.62 10.2025 11.8507 14.5092 11.1253C15.4962 10.9608 16.5036 10.9608 17.4905 11.1253C21.7972 11.8507 24.9999 15.62 24.9999 20.028V20.0307L28.4505 21.776C28.5725 21.8323 28.6818 21.9126 28.772 22.012C28.8622 22.1115 28.9314 22.2281 28.9756 22.3549C29.0198 22.4817 29.038 22.6162 29.0291 22.7501C29.0202 22.8841 28.9844 23.0149 28.9238 23.1348C28.8633 23.2546 28.7792 23.3611 28.6766 23.4477C28.574 23.5344 28.4551 23.5995 28.3268 23.6392C28.1985 23.6789 28.0635 23.6923 27.9299 23.6787C27.7963 23.6651 27.6669 23.6247 27.5492 23.56L24.0972 21.816C23.7667 21.6488 23.489 21.3931 23.2953 21.0774C23.1015 20.7617 22.9993 20.3984 22.9999 20.028C22.9999 16.596 20.5025 13.6613 17.1585 13.0973" fill="white"/>
</svg>
