<svg width="38" height="38" viewBox="0 0 38 38" fill="none" xmlns="http://www.w3.org/2000/svg">
<path d="M7.91699 12.667C7.91699 8.18933 7.91699 5.94891 9.30874 4.55874C10.6989 3.16699 12.9393 3.16699 17.417 3.16699H20.5837C25.0613 3.16699 27.3017 3.16699 28.6919 4.55874C30.0837 5.94891 30.0837 8.18933 30.0837 12.667V25.3337C30.0837 29.8113 30.0837 32.0517 28.6919 33.4419C27.3017 34.8337 25.0613 34.8337 20.5837 34.8337H17.417C12.9393 34.8337 10.6989 34.8337 9.30874 33.4419C7.91699 32.0517 7.91699 29.8113 7.91699 25.3337V12.667Z" stroke="white" stroke-width="3"/>
<path opacity="0.5" d="M7.91699 6.4541C6.37324 6.6061 5.33458 6.94968 4.55874 7.72552C3.16699 9.11568 3.16699 11.3561 3.16699 15.8338V22.1671C3.16699 26.6448 3.16699 28.8852 4.55874 30.2754C5.33458 31.0512 6.37324 31.3948 7.91699 31.5468M30.0837 6.4541C31.6274 6.6061 32.6661 6.94968 33.4419 7.72552C34.8337 9.11568 34.8337 11.3561 34.8337 15.8338V22.1671C34.8337 26.6448 34.8337 28.8852 33.4419 30.2754C32.6661 31.0512 31.6274 31.3948 30.0837 31.5468" stroke="white" stroke-width="3"/>
<path opacity="0.7" d="M14.25 20.584H23.75" stroke="white" stroke-width="3" stroke-linecap="round"/>
<path d="M14.25 14.25H23.75" stroke="white" stroke-width="3" stroke-linecap="round"/>
<path opacity="0.4" d="M14.25 26.917H19" stroke="white" stroke-width="3" stroke-linecap="round"/>
</svg>
