<svg width="38" height="38" viewBox="0 0 38 38" fill="none" xmlns="http://www.w3.org/2000/svg">
<path opacity="0.5" d="M4.75 16.4936C4.75 11.4301 4.75 8.89834 5.3485 8.0465C5.94542 7.19625 8.32517 6.38084 13.0863 4.75159L13.9935 4.44126C16.4746 3.59101 17.7143 3.16667 19 3.16667C20.2857 3.16667 21.5254 3.59101 24.0065 4.44126L24.9137 4.75159C29.6748 6.38084 32.0546 7.19625 32.6515 8.0465C33.25 8.89834 33.25 11.4317 33.25 16.4936V18.9858C33.25 27.9126 26.5383 32.2462 22.3266 34.0844C21.185 34.5832 20.615 34.8333 19 34.8333C17.385 34.8333 16.815 34.5832 15.6734 34.0844C11.4618 32.2446 4.75 27.9142 4.75 18.9858V16.4936Z" stroke="white" stroke-width="2"/>
<path d="M18.9997 17.4167C20.7486 17.4167 22.1663 15.9989 22.1663 14.25C22.1663 12.5011 20.7486 11.0833 18.9997 11.0833C17.2508 11.0833 15.833 12.5011 15.833 14.25C15.833 15.9989 17.2508 17.4167 18.9997 17.4167Z" stroke="white" stroke-width="2"/>
<path d="M25.3337 23.75C25.3337 25.4996 25.3337 26.9167 19.0003 26.9167C12.667 26.9167 12.667 25.4996 12.667 23.75C12.667 22.0004 15.5012 20.5833 19.0003 20.5833C22.4995 20.5833 25.3337 22.0004 25.3337 23.75Z" stroke="white" stroke-width="2"/>
</svg>
