<svg width="44" height="44" viewBox="0 0 44 44" fill="none" xmlns="http://www.w3.org/2000/svg">
<path opacity="0.5" d="M3.66699 1.7915C4.16427 1.7915 4.64153 1.9887 4.99316 2.34033C5.34479 2.69196 5.54199 3.16922 5.54199 3.6665V21.9995C5.54199 26.3729 5.54691 29.4648 5.86035 31.8071L5.9209 32.2251C6.24086 34.2558 6.79938 35.4435 7.67578 36.3218C8.61275 37.2571 9.90373 37.8323 12.1924 38.1401L12.6406 38.1948C14.9264 38.4537 17.8998 38.4585 22 38.4585H40.334C40.8311 38.4586 41.3076 38.6559 41.6592 39.0073C42.0108 39.359 42.209 39.8362 42.209 40.3335C42.2089 40.8307 42.0107 41.3071 41.6592 41.6587C41.3076 42.0102 40.8311 42.2084 40.334 42.2085H21.8955C17.676 42.2085 14.3201 42.2088 11.6924 41.855C8.98814 41.4919 6.77462 40.7234 5.02539 38.9741C3.27832 37.225 2.50766 35.0119 2.14453 32.3091C1.79073 29.6795 1.79199 26.3235 1.79199 22.104V3.6665C1.79199 3.16922 1.98919 2.69196 2.34082 2.34033C2.69245 1.9887 3.16971 1.7915 3.66699 1.7915Z" fill="#50663B" stroke="#50663B"/>
<path d="M34.6172 10.9531C34.8644 10.9223 35.1156 10.9406 35.3555 11.0078C35.5953 11.0751 35.8195 11.1899 36.0146 11.3447C36.2097 11.4995 36.3721 11.692 36.4922 11.9102C36.6121 12.1282 36.6876 12.3678 36.7139 12.6152C36.7401 12.8629 36.7171 13.1139 36.6455 13.3525C36.5748 13.5881 36.4571 13.8065 36.3018 13.9971L36.3027 13.998L30.5586 21.2324V21.2334C30.1485 21.7482 29.7846 22.2019 29.4619 22.5596L29.4629 22.5605C29.1025 22.9761 28.6746 23.3281 28.1973 23.6016L28.1904 23.6055L28.1846 23.6084C27.5435 23.9512 26.8303 24.1386 26.1035 24.1543C25.3768 24.17 24.6562 24.0139 24.001 23.6992V23.6982C23.467 23.4408 23.0461 23.0754 22.6895 22.7148V22.7139C22.3446 22.3688 21.9606 21.9251 21.5303 21.4297V21.4287L21.5049 21.4004L21.501 21.3965C21.0208 20.844 20.7244 20.5026 20.4844 20.2607V20.2598C20.2488 20.0225 20.1873 20.0074 20.2188 20.0215L20.2061 20.0156C20.0822 19.956 19.946 19.9269 19.8086 19.9297C19.6712 19.9325 19.5363 19.9676 19.415 20.0322C19.3956 20.0459 19.3167 20.1052 19.1504 20.2881L19.1514 20.2891C18.9225 20.5422 18.6378 20.8964 18.1855 21.4668V21.4678L12.4668 28.665L12.4619 28.6729L12.4551 28.6797C12.1396 29.048 11.6937 29.2797 11.2109 29.3262C10.728 29.3726 10.2453 29.2304 9.86523 28.9287C9.4852 28.627 9.23718 28.189 9.17285 27.708C9.10866 27.2273 9.23328 26.7404 9.52051 26.3496L9.52637 26.3418L9.53223 26.335L15.2754 19.1006C15.6871 18.5814 16.0513 18.1237 16.376 17.7646C16.7333 17.3489 17.1609 16.9986 17.6387 16.7295L17.6475 16.7246C18.2885 16.3819 19.0018 16.1944 19.7285 16.1787C20.3644 16.165 20.9953 16.283 21.582 16.5234L21.8311 16.6338L21.8418 16.6387V16.6396C22.3281 16.8875 22.7674 17.2181 23.1406 17.6162C23.4822 17.9578 23.8631 18.3964 24.2881 18.8877L24.3193 18.9209L24.3262 18.9287L24.334 18.9375C24.8089 19.486 25.1081 19.8289 25.3467 20.0713C25.465 20.1896 25.5408 20.2534 25.583 20.2861L25.6201 20.3145L25.626 20.3174C25.7497 20.3769 25.8861 20.4061 26.0234 20.4033C26.1608 20.4005 26.2957 20.3654 26.417 20.3008C26.4361 20.2875 26.5148 20.2276 26.6826 20.043V20.042C26.9124 19.7897 27.1961 19.4367 27.6484 18.8662V18.8652L33.3652 11.668C33.5155 11.4733 33.7027 11.31 33.916 11.1875C34.1319 11.0636 34.3702 10.984 34.6172 10.9531Z" fill="#50663B" stroke="#50663B"/>
</svg>
