<svg width="44" height="44" viewBox="0 0 44 44" fill="none" xmlns="http://www.w3.org/2000/svg">
<path opacity="0.5" d="M3.66699 1.7915C4.16427 1.7915 4.64153 1.9887 4.99316 2.34033C5.34479 2.69196 5.54199 3.16922 5.54199 3.6665V21.9995C5.54199 26.3729 5.54691 29.4648 5.86035 31.8071L5.9209 32.2251C6.24086 34.2558 6.79938 35.4435 7.67578 36.3218C8.61275 37.2571 9.90373 37.8323 12.1924 38.1401L12.6406 38.1948C14.9264 38.4537 17.8998 38.4585 22 38.4585H40.334C40.8311 38.4586 41.3076 38.6559 41.6592 39.0073C42.0108 39.359 42.209 39.8362 42.209 40.3335C42.2089 40.8307 42.0107 41.3071 41.6592 41.6587C41.3076 42.0102 40.8311 42.2084 40.334 42.2085H21.8955C17.676 42.2085 14.3201 42.2088 11.6924 41.855C8.98814 41.4919 6.77462 40.7234 5.02539 38.9741C3.27832 37.225 2.50766 35.0119 2.14453 32.3091C1.79073 29.6795 1.79199 26.3235 1.79199 22.104V3.6665C1.79199 3.16922 1.98919 2.69196 2.34082 2.34033C2.69245 1.9887 3.16971 1.7915 3.66699 1.7915Z" fill="#50663B" stroke="#50663B"/>
<path d="M11.2178 10.9351C11.4675 10.9685 11.7081 11.0517 11.9248 11.1802C12.1363 11.3055 12.3203 11.4719 12.4678 11.6685L18.1865 18.8657L18.1904 18.8716C18.3455 19.0728 18.5039 19.2718 18.665 19.4683L19.1582 20.0513L19.168 20.063C19.2462 20.1586 19.3382 20.2415 19.4395 20.312C19.5548 20.3695 19.6815 20.4019 19.8105 20.4048C19.9474 20.4077 20.0826 20.3778 20.2061 20.3188C20.2237 20.3078 20.3051 20.253 20.4863 20.0718C20.7262 19.83 21.0224 19.4887 21.502 18.937L21.5225 18.9116L21.5303 18.9028C21.9638 18.4058 22.3485 17.9624 22.6885 17.6187C23.0651 17.2224 23.5054 16.8921 23.9912 16.6411L23.998 16.6372L24.0049 16.6343C24.66 16.3203 25.3801 16.1651 26.1064 16.1812C26.742 16.1953 27.367 16.3394 27.9424 16.605L28.1855 16.7261L28.1953 16.7319C28.677 17.0033 29.1076 17.3575 29.4668 17.7778H29.4658C29.6265 17.9543 29.7963 18.1549 29.9756 18.3745L30.5576 19.1001L36.3018 26.3345H36.3008C36.459 26.5229 36.5791 26.7404 36.6533 26.9751C36.7292 27.2153 36.7565 27.4684 36.7324 27.7192C36.7083 27.9701 36.633 28.2136 36.5127 28.4351C36.3923 28.6565 36.2287 28.8516 36.0312 29.0083C35.8339 29.1649 35.6071 29.2802 35.3643 29.3472C35.1213 29.4141 34.867 29.4323 34.6172 29.3989C34.3674 29.3655 34.127 29.2813 33.9102 29.1528C33.6933 29.0243 33.5038 28.854 33.3545 28.6509V28.6499L27.6494 21.4673C27.196 20.8954 26.9134 20.542 26.6846 20.2925V20.2915C26.5167 20.1081 26.4377 20.0469 26.418 20.0327L26.3252 19.9897C26.2296 19.9524 26.1276 19.9313 26.0244 19.9292C25.8871 19.9264 25.7507 19.9566 25.627 20.0161L25.6211 20.019C25.6492 20.006 25.5827 20.0271 25.3477 20.2622C25.109 20.5046 24.8099 20.8475 24.335 21.396L24.3301 21.4009L24.3008 21.4341C23.8703 21.9297 23.4871 22.3718 23.1455 22.7153C22.7876 23.0752 22.3664 23.4422 21.8301 23.6997C21.1753 24.0134 20.4554 24.1679 19.7295 24.1519C19.0035 24.1358 18.2908 23.9493 17.6504 23.6069V23.606C17.1264 23.3276 16.723 22.9462 16.3818 22.5688V22.5698C16.0515 22.2107 15.6865 21.748 15.2773 21.2339L15.2764 21.2329L9.5332 13.9985L9.53418 13.9976C9.3762 13.8093 9.25479 13.5933 9.18066 13.3589C9.10469 13.1185 9.07841 12.8647 9.10254 12.6138C9.12669 12.3629 9.20096 12.1194 9.32129 11.8979C9.44166 11.6765 9.60534 11.4814 9.80273 11.3247C10.0002 11.168 10.2277 11.0528 10.4707 10.9858C10.7136 10.9189 10.968 10.9016 11.2178 10.9351Z" fill="#50663B" stroke="#50663B"/>
</svg>
