<svg width="20" height="20" viewBox="0 0 20 20" fill="none" xmlns="http://www.w3.org/2000/svg">
<path opacity="0.5" d="M10 4.58417L11.6667 6.25083" stroke="white" stroke-width="1.5" stroke-linecap="round"/>
<path d="M10.0003 4.58333L9.55033 5.01667C9.60863 5.07716 9.67853 5.12527 9.75585 5.15813C9.83316 5.191 9.91631 5.20793 10.0003 5.20793C10.0843 5.20793 10.1675 5.191 10.2448 5.15813C10.3221 5.12527 10.392 5.07716 10.4503 5.01667L10.0003 4.58333ZM7.85533 15.2683C6.59199 14.2725 5.21116 13.3 4.11533 12.0667C3.04199 10.8567 2.29199 9.44583 2.29199 7.61417H1.04199C1.04199 9.83583 1.96699 11.5308 3.18116 12.8967C4.37283 14.2383 5.89283 15.3133 7.08116 16.25L7.85533 15.2683ZM2.29199 7.61417C2.29199 5.8225 3.30449 4.31917 4.68699 3.68667C6.03033 3.0725 7.83533 3.235 9.55033 5.01667L10.4503 4.15083C8.41699 2.03667 6.05366 1.6875 4.16699 2.55C2.32199 3.39417 1.04199 5.35417 1.04199 7.61417H2.29199ZM7.08116 16.25C7.50866 16.5867 7.96699 16.945 8.43116 17.2167C8.89533 17.4883 9.42533 17.7083 10.0003 17.7083V16.4583C9.74199 16.4583 9.43866 16.3583 9.06199 16.1375C8.68449 15.9175 8.29366 15.6142 7.85533 15.2683L7.08116 16.25ZM12.9195 16.25C14.1078 15.3125 15.6278 14.2392 16.8195 12.8967C18.0337 11.53 18.9587 9.83583 18.9587 7.61417H17.7087C17.7087 9.44583 16.9587 10.8567 15.8853 12.0667C14.7895 13.3 13.4087 14.2725 12.1453 15.2683L12.9195 16.25ZM18.9587 7.61417C18.9587 5.35417 17.6795 3.39417 15.8337 2.55C13.947 1.6875 11.5853 2.03667 9.55033 4.15L10.4503 5.01667C12.1653 3.23583 13.9703 3.0725 15.3137 3.68667C16.6962 4.31917 17.7087 5.82167 17.7087 7.61417H18.9587ZM12.1453 15.2683C11.707 15.6142 11.3162 15.9175 10.9387 16.1375C10.5612 16.3575 10.2587 16.4583 10.0003 16.4583V17.7083C10.5753 17.7083 11.1053 17.4875 11.5695 17.2167C12.0345 16.945 12.492 16.5867 12.9195 16.25L12.1453 15.2683Z" fill="white"/>
</svg>
