<svg width="44" height="44" viewBox="0 0 44 44" fill="none" xmlns="http://www.w3.org/2000/svg">
<path d="M22 7.51123C26.2875 3.86531 31.0939 3.34989 35.042 5.15479C39.1508 7.03394 42.0176 11.3034 42.1992 16.2515H42.209V17.2515H42.2012C42.0758 21.7397 40.2699 25.2558 37.8799 28.1196L37.376 28.7046C34.7159 31.7012 31.3171 34.103 28.7324 36.1421L28.7314 36.1431L28.3398 36.4526L28.3379 36.4507C27.5094 37.0989 26.6167 37.7754 25.7051 38.3081H25.7041C24.7764 38.8494 23.6937 39.3272 22.5 39.4351V39.4585H21.5V39.4351C20.3068 39.3275 19.2242 38.8514 18.2959 38.3081C17.3854 37.7752 16.4907 37.0986 15.6611 36.4497V36.4517L15.2686 36.1431L13.0869 34.4526C12.4495 33.96 11.7985 33.4476 11.1582 32.9292L11.1553 32.9341L10.7686 32.6157L10.3828 32.2983L10.4268 32.2446C10.2421 31.9818 10.1246 31.6745 10.0928 31.3491C10.0445 30.8537 10.1956 30.3586 10.5117 29.9741C10.8279 29.5899 11.2841 29.3466 11.7793 29.2983C12.1043 29.2667 12.4283 29.3225 12.7217 29.4526L12.7666 29.3989L13.1484 29.7134L13.1533 29.7173L14.2715 30.6187C15.2524 31.3942 16.2211 32.1307 17.1953 32.8911L17.1982 32.8882L17.5908 33.1978C18.56 33.9624 19.3925 34.6075 20.1875 35.0708H20.1885C20.9811 35.5355 21.5583 35.7084 22 35.7085C22.441 35.7085 23.0162 35.5348 23.8125 35.0708C24.6074 34.6075 25.4401 33.9623 26.4092 33.1978L26.8027 32.8882L26.8047 32.8911C29.497 30.7885 32.3114 28.76 34.5732 26.2144C36.8069 23.6963 38.3593 20.8112 38.4541 17.1118L38.459 16.7515L38.4521 16.4009C38.325 12.8015 36.2483 9.8308 33.4814 8.56494C31.0814 7.46782 27.9056 7.55138 24.7041 10.1362L26.9922 12.4224L27.3457 12.7759L27.2959 12.8247C27.3338 12.8914 27.3699 12.9596 27.3994 13.0308C27.4938 13.2581 27.5418 13.5023 27.542 13.7485C27.5422 13.9947 27.4944 14.2388 27.4004 14.4663C27.3064 14.6938 27.1681 14.9004 26.9941 15.0747C26.8203 15.2489 26.614 15.3875 26.3867 15.4819C26.1593 15.5764 25.9152 15.6252 25.6689 15.6255C25.4227 15.6257 25.1788 15.5769 24.9512 15.4829C24.8795 15.4533 24.8104 15.4184 24.7432 15.3804L24.6953 15.4292L24.3613 15.0952C24.3551 15.0891 24.348 15.0838 24.3418 15.0776L23.9883 14.7241V14.7231L21.0283 11.7642L21.0117 11.7817L20.668 11.4038L20.3213 11.0571L20.3232 11.0542C16.7823 7.58179 13.1754 7.34926 10.5186 8.56396C7.66274 9.87079 5.54199 12.9953 5.54199 16.7495V16.7544L5.5459 17.1646C5.59874 19.1706 6.12442 21.1368 7.0791 22.9048L7.14551 23.0269C7.14893 23.0331 7.15095 23.0401 7.1543 23.0464L7.3877 23.4663L7.32422 23.5005C7.3415 23.5744 7.35605 23.6493 7.36426 23.7251C7.39074 23.9698 7.36896 24.2174 7.2998 24.4536C7.23062 24.6899 7.11528 24.9102 6.96094 25.1021C6.80662 25.2938 6.61634 25.4536 6.40039 25.5718C6.18437 25.69 5.94695 25.764 5.70215 25.7905C5.45738 25.817 5.20992 25.7952 4.97363 25.7261C4.73744 25.6569 4.51698 25.5424 4.3252 25.3882C4.26515 25.3399 4.20969 25.286 4.15625 25.231L4.09473 25.2651L3.85547 24.8267L3.61523 24.3882L3.62109 24.3843C2.55493 22.2977 1.87516 19.9409 1.7998 17.2515H1.79199V16.2515H1.80176C1.98351 11.3034 4.85215 7.03489 8.95898 5.15576V5.15479C12.9067 3.35011 17.7148 3.86592 22 7.51123Z" fill="#50663B" stroke="#50663B"/>
</svg>
