<svg width="88" height="88" viewBox="0 0 88 88" fill="none" xmlns="http://www.w3.org/2000/svg">
<path d="M43.9997 58.6668C58.175 58.6668 69.6663 47.1755 69.6663 33.0002C69.6663 18.8249 58.175 7.3335 43.9997 7.3335C29.8244 7.3335 18.333 18.8249 18.333 33.0002C18.333 47.1755 29.8244 58.6668 43.9997 58.6668Z" stroke="white" stroke-width="8"/>
<path opacity="0.5" d="M26.9531 55L24.6175 63.5177C22.3148 71.9217 21.1635 76.1237 22.6998 78.4227C23.2388 79.2293 23.9611 79.8747 24.8008 80.3037C27.1915 81.521 30.8875 79.596 38.2758 75.746C40.7325 74.4627 41.9645 73.8247 43.2698 73.6853C43.755 73.6368 44.2439 73.6368 44.7291 73.6853C46.0345 73.8247 47.2628 74.4663 49.7231 75.746C57.1115 79.596 60.8075 81.521 63.1981 80.3037C64.0378 79.8747 64.7601 79.2293 65.2991 78.4227C66.8391 76.1237 65.6841 71.9217 63.3815 63.5177L61.0458 55" stroke="white" stroke-width="8" stroke-linecap="round"/>
</svg>
