<svg width="52" height="52" viewBox="0 0 52 52" fill="none" xmlns="http://www.w3.org/2000/svg">
<path d="M27.7159 34.2334L30.8143 31.1308C33.2813 28.6622 34.6671 25.315 34.6671 21.8249C34.6671 18.3349 33.2813 14.9877 30.8143 12.5191C29.5935 11.2975 28.144 10.3284 26.5485 9.66726C24.9531 9.00608 23.243 8.66577 21.516 8.66577C19.789 8.66577 18.0789 9.00608 16.4835 9.66726C14.888 10.3284 13.4385 11.2975 12.2178 12.5191L6.01892 18.7266C4.22646 20.5236 2.99167 22.8005 2.46326 25.283C1.93485 27.7655 2.13535 30.3478 3.04061 32.7191C3.94587 35.0903 5.51729 37.1492 7.56564 38.648C9.614 40.1468 12.052 41.0215 14.5859 41.1668" stroke="#50663B" stroke-width="4" stroke-linecap="round"/>
<path opacity="0.5" d="M24.2842 17.7668L21.1859 20.8695C18.7188 23.3381 17.333 26.6853 17.333 30.1753C17.333 33.6654 18.7188 37.0126 21.1859 39.4812C22.4066 40.7028 23.8561 41.6718 25.4516 42.333C27.047 42.9942 28.7571 43.3345 30.4841 43.3345C32.2111 43.3345 33.9212 42.9942 35.5166 42.333C37.1121 41.6718 38.5616 40.7028 39.7824 39.4812L45.9812 33.2758C47.7743 31.4789 49.0097 29.2019 49.5386 26.719C50.0674 24.2362 49.867 21.6534 48.9617 19.2817C48.0564 16.9101 46.4846 14.8508 44.4359 13.3519C42.3871 11.853 39.9486 10.9784 37.4142 10.8335" stroke="#50663B" stroke-width="4" stroke-linecap="round"/>
</svg>
