<svg width="88" height="88" viewBox="0 0 88 88" fill="none" xmlns="http://www.w3.org/2000/svg">
<path d="M32.9997 36.6668C41.0999 36.6668 47.6663 30.1003 47.6663 22.0002C47.6663 13.9 41.0999 7.3335 32.9997 7.3335C24.8995 7.3335 18.333 13.9 18.333 22.0002C18.333 30.1003 24.8995 36.6668 32.9997 36.6668Z" stroke="white" stroke-width="6"/>
<path opacity="0.5" d="M45.833 15.917C47.1396 13.9484 49.0454 12.4528 51.2682 11.6516C53.4911 10.8505 55.9128 10.7863 58.1749 11.4687C60.437 12.1511 62.4192 13.5438 63.8282 15.4405C65.2372 17.3372 65.998 19.6372 65.998 22C65.998 24.3628 65.2372 26.6628 63.8282 28.5595C62.4192 30.4562 60.437 31.8489 58.1749 32.5313C55.9128 33.2137 53.4911 33.1495 51.2682 32.3484C49.0454 31.5472 47.1396 30.0516 45.833 28.083" stroke="white" stroke-width="6"/>
<path d="M32.9997 77.0003C47.175 77.0003 58.6663 70.4338 58.6663 62.3337C58.6663 54.2335 47.175 47.667 32.9997 47.667C18.8244 47.667 7.33301 54.2335 7.33301 62.3337C7.33301 70.4338 18.8244 77.0003 32.9997 77.0003Z" stroke="white" stroke-width="6"/>
<path opacity="0.5" d="M66 51.3335C72.4313 52.7452 77 56.3165 77 60.5002C77 64.2768 73.282 67.5512 67.8333 69.1902" stroke="white" stroke-width="6" stroke-linecap="round"/>
</svg>
