<svg width="38" height="38" viewBox="0 0 38 38" fill="none" xmlns="http://www.w3.org/2000/svg">
<path d="M27.7047 29.2683L32.6606 14.3992C34.6366 8.4696 35.6261 5.50402 34.0602 3.93968C32.4959 2.37377 29.5319 3.36335 23.6007 5.33935L8.82664 10.2635C5.53014 11.3624 3.88189 11.9118 3.38155 13.1199C3.26333 13.4059 3.19314 13.7036 3.17097 14.0129C3.07755 15.3175 4.30622 16.5462 6.76355 19.0019L7.21164 19.45C7.6138 19.8522 7.81647 20.0549 7.96847 20.2781C8.2693 20.7214 8.43872 21.2392 8.4593 21.7744C8.47197 22.0451 8.42922 22.3285 8.3453 22.8906C8.03497 24.9553 7.8798 25.9876 8.06189 26.7824C8.42605 28.3658 9.65155 29.6087 11.2286 29.9934C12.0202 30.1882 13.0557 30.0473 15.1236 29.767L15.2376 29.7512C15.8202 29.672 16.1116 29.6324 16.3918 29.6499C16.8985 29.6799 17.3893 29.8462 17.8136 30.1296C18.0464 30.2848 18.2554 30.4938 18.6702 30.9086L19.0692 31.3076C21.4601 33.6984 22.6555 34.8939 23.9237 34.8321C24.2721 34.8147 24.6172 34.7339 24.9371 34.5914C26.0992 34.08 26.636 32.4761 27.7047 29.2683Z" stroke="white" stroke-width="3"/>
<path opacity="0.5" d="M9.5 28.5L33.25 4.75" stroke="white" stroke-width="3" stroke-linecap="round"/>
</svg>
