<svg width="24" height="24" viewBox="0 0 24 24" fill="none" xmlns="http://www.w3.org/2000/svg">
<path d="M22 16C22 18.828 22 20.243 21.121 21.121C20.243 22 18.828 22 16 22H8C5.172 22 3.757 22 2.879 21.121C2 20.243 2 18.828 2 16V12C2 9.172 2 7.757 2.879 6.879C3.757 6 5.172 6 8 6H16C18.828 6 20.243 6 21.121 6.879C22 7.757 22 9.172 22 12V16Z" stroke="#50663B" stroke-width="1.5"/>
<path opacity="0.5" d="M9 2L12 5.5L15 2" stroke="#50663B" stroke-width="1.5" stroke-linecap="round"/>
<path d="M16 6V22" stroke="#50663B" stroke-width="1.5" stroke-linecap="round"/>
<path opacity="0.5" d="M20 16C20 15.7348 19.8946 15.4804 19.7071 15.2929C19.5196 15.1054 19.2652 15 19 15C18.7348 15 18.4804 15.1054 18.2929 15.2929C18.1054 15.4804 18 15.7348 18 16C18 16.2652 18.1054 16.5196 18.2929 16.7071C18.4804 16.8946 18.7348 17 19 17C19.2652 17 19.5196 16.8946 19.7071 16.7071C19.8946 16.5196 20 16.2652 20 16ZM20 12C20 11.7348 19.8946 11.4804 19.7071 11.2929C19.5196 11.1054 19.2652 11 19 11C18.7348 11 18.4804 11.1054 18.2929 11.2929C18.1054 11.4804 18 11.7348 18 12C18 12.2652 18.1054 12.5196 18.2929 12.7071C18.4804 12.8946 18.7348 13 19 13C19.2652 13 19.5196 12.8946 19.7071 12.7071C19.8946 12.5196 20 12.2652 20 12Z" fill="#50663B"/>
</svg>
