<svg width="44" height="44" viewBox="0 0 44 44" fill="none" xmlns="http://www.w3.org/2000/svg">
<path d="M11.5688 16.5C15.7562 9.16667 18.2733 5.5 22.0005 5.5C26.2355 5.5 28.9122 10.2428 34.2618 19.7303L34.9292 20.911C39.375 28.7943 41.5988 32.736 39.5895 35.618C37.5802 38.5 32.6082 38.5 22.6678 38.5H21.3332C11.3928 38.5 6.42082 38.5 4.41148 35.618C2.66798 33.1173 4.11265 29.8155 7.43282 23.8333M22.0005 14.6667V23.8333" stroke="#50663B" stroke-width="4" stroke-linecap="round"/>
<path d="M22.0003 31.1667C23.0128 31.1667 23.8337 30.3459 23.8337 29.3333C23.8337 28.3208 23.0128 27.5 22.0003 27.5C20.9878 27.5 20.167 28.3208 20.167 29.3333C20.167 30.3459 20.9878 31.1667 22.0003 31.1667Z" fill="#50663B"/>
</svg>
